HIERARCHY
ROOT Hips
{
	OFFSET 0.000000 0.000000 0.000000
	CHANNELS 6 Xposition Yposition Zposition Zrotation Yrotation Xrotation 
	JOINT LHipJoint
	{
		OFFSET 0.000000 0.000000 0.000000
		CHANNELS 3 Zrotation Yrotation Xrotation
		JOINT LeftUpLeg
		{
			OFFSET 1.363060 -1.794630 0.839290
			CHANNELS 3 Zrotation Yrotation Xrotation
			JOINT LeftLeg
			{
				OFFSET 2.448110 -6.726130 0.000000
				CHANNELS 3 Zrotation Yrotation Xrotation
				JOINT LeftFoot
				{
					OFFSET 2.562200 -7.039590 0.000000
					CHANNELS 3 Zrotation Yrotation Xrotation
					JOINT LeftToeBase
					{
						OFFSET 0.157640 -0.433110 2.322550
						CHANNELS 3 Zrotation Yrotation Xrotation
						End Site
						{
							OFFSET 0.000000 0.000000 0.000000
						}
					}
				}
			}
		}
	}
	JOINT RHipJoint
	{
		OFFSET 0.000000 0.000000 0.000000
		CHANNELS 3 Zrotation Yrotation Xrotation
		JOINT RightUpLeg
		{
			OFFSET -1.305520 -1.794630 0.839290
			CHANNELS 3 Zrotation Yrotation Xrotation
			JOINT RightLeg
			{
				OFFSET -2.542530 -6.985550 0.000000
				CHANNELS 3 Zrotation Yrotation Xrotation
				JOINT RightFoot
				{
					OFFSET -2.568260 -7.056230 0.000000
					CHANNELS 3 Zrotation Yrotation Xrotation
					JOINT RightToeBase
					{
						OFFSET -0.164730 -0.452590 2.363150
						CHANNELS 3 Zrotation Yrotation Xrotation
						End Site
						{
							OFFSET 0.000000 0.000000 0.000000
						}
					}
				}
			}
		}
	}
	JOINT LowerBack
	{
		OFFSET 0.000000 0.000000 0.000000
		CHANNELS 3 Zrotation Yrotation Xrotation
		JOINT Spine
		{
			OFFSET 0.028270 2.035590 -0.193380
			CHANNELS 3 Zrotation Yrotation Xrotation
			JOINT Spine1
			{
				OFFSET 0.056720 2.048850 -0.042750
				CHANNELS 3 Zrotation Yrotation Xrotation
				JOINT Neck
				{
					OFFSET 0.000000 0.000000 0.000000
					CHANNELS 3 Zrotation Yrotation Xrotation
					JOINT Neck1
					{
						OFFSET -0.054170 1.746240 0.172020
						CHANNELS 3 Zrotation Yrotation Xrotation
						JOINT Head
						{
							OFFSET 0.104070 1.761360 -0.123970
							CHANNELS 3 Zrotation Yrotation Xrotation
							End Site
							{
								OFFSET 0.000000 0.000000 0.000000
							}
						}
					}
				}
				JOINT LeftShoulder
				{
					OFFSET 0.000000 0.000000 0.000000
					CHANNELS 3 Zrotation Yrotation Xrotation
					JOINT LeftArm
					{
						OFFSET 3.362410 1.200890 -0.311210
						CHANNELS 3 Zrotation Yrotation Xrotation
						JOINT LeftForeArm
						{
							OFFSET 4.983000 -0.000000 -0.000000
							CHANNELS 3 Zrotation Yrotation Xrotation
							JOINT LeftHand
							{
								OFFSET 3.483560 -0.000000 -0.000000
								CHANNELS 3 Zrotation Yrotation Xrotation
								JOINT LeftFingerBase
								{
									OFFSET 0.000000 0.000000 0.000000
									CHANNELS 3 Zrotation Yrotation Xrotation
									JOINT LeftHandIndex1
									{
										OFFSET 0.715260 -0.000000 -0.000000
										CHANNELS 3 Zrotation Yrotation Xrotation
										End Site
										{
											OFFSET 0.000000 0.000000 0.000000
										}
									}
								}
								JOINT LThumb
								{
									OFFSET 0.000000 0.000000 0.000000
									CHANNELS 3 Zrotation Yrotation Xrotation
									End Site
									{
										OFFSET 0.000000 0.000000 0.000000
									}
								}
							}
						}
					}
				}
				JOINT RightShoulder
				{
					OFFSET 0.000000 0.000000 0.000000
					CHANNELS 3 Zrotation Yrotation Xrotation
					JOINT RightArm
					{
						OFFSET -3.136600 1.374050 -0.404650
						CHANNELS 3 Zrotation Yrotation Xrotation
						JOINT RightForeArm
						{
							OFFSET -5.241900 -0.000000 -0.000000
							CHANNELS 3 Zrotation Yrotation Xrotation
							JOINT RightHand
							{
								OFFSET -3.444170 -0.000000 -0.000000
								CHANNELS 3 Zrotation Yrotation Xrotation
								JOINT RightFingerBase
								{
									OFFSET 0.000000 0.000000 0.000000
									CHANNELS 3 Zrotation Yrotation Xrotation
									JOINT RightHandIndex1
									{
										OFFSET -0.622530 -0.000000 -0.000000
										CHANNELS 3 Zrotation Yrotation Xrotation
										End Site
										{
											OFFSET 0.000000 0.000000 0.000000
										}
									}
								}
								JOINT RThumb
								{
									OFFSET 0.000000 0.000000 0.000000
									CHANNELS 3 Zrotation Yrotation Xrotation
									End Site
									{
										OFFSET 0.000000 0.000000 0.000000
									}
								}
							}
						}
					}
				}
			}
		}
	}
}
MOTION
Frames: 6
Frame Time: 0.008333
-8.398542 16.178383 1.367668 -175.042225 76.949045 -157.326771 -11.418895 2.936377 -0.743388 -6.465342 -4.892542 3.354929 -0.598984 2.059346 31.321165 0.849516 4.622496 0.680923 0.576100 -0.000000 -77.747800 8.677973 1.506814 1.486653 -3.256135 0.583999 -45.508409 1.634636 -1.584060 20.995289 -0.043632 0.385935 10.546726 -0.320600 0.000001 -60.468200 5.877302 -3.545020 0.912623 -0.011205 -4.018791 -2.012265 -8.507937 -3.920277 2.499563 7.721976 -10.146751 -7.846647 -4.223103 -0.313725 -0.173259 0.000000 0.000000 0.000000 3.559975 8.920117 2.447378 -18.231320 -11.390465 0.330319 -0.010371 -87.689980 0.054911 -12.867196 0.411618 -0.019535 0.172391 0.246660 -0.000000 0.000000 0.000000 0.000000 0.000000 0.000000 0.000000 17.870045 -8.875093 1.047643 66.479082 -8.817226 -20.840298 4.125420 16.174903 0.022000 3.244165 8.942089 0.248391 0.105424 -0.083057 -0.000000 0.000000 0.000000 0.000000 0.000000 0.000000 0.000000 
-8.179063 16.152458 1.344369 -172.521530 76.508766 -155.108095 -11.756574 2.978005 -0.913713 -5.395169 -3.740139 2.109061 -0.335124 2.289141 34.571722 1.061801 6.075764 1.734990 0.832000 0.000000 -75.120900 8.570192 1.446372 1.189885 -2.198980 0.397233 -45.774533 1.551235 -1.858069 24.020088 -0.132089 -0.041249 10.548645 -0.440100 -0.000000 -59.975800 6.631644 -3.451745 1.265358 0.105944 -3.954719 -1.974517 -8.605511 -3.858153 2.423837 7.654820 -9.671900 -7.848113 -4.316095 -0.319989 -0.182383 0.000000 0.000000 0.000000 3.350977 9.241915 2.490240 -18.447665 -10.845331 0.379449 0.005205 -88.157291 0.054719 -13.012057 0.221021 0.002248 0.170638 0.245829 -0.000000 0.000000 0.000000 0.000000 0.000000 0.000000 0.000000 18.093847 -8.329395 1.073946 66.430333 -8.309147 -21.709555 4.112091 15.192949 0.021772 2.952680 9.043200 0.227982 0.105039 -0.084684 -0.000000 0.000000 0.000000 0.000000 0.000000 0.000000 0.000000 
-7.965714 16.135540 1.320996 -170.463355 75.976145 -153.339217 -12.093989 2.975774 -1.096334 -4.363283 -2.564306 0.705135 -0.085855 2.502404 37.919973 1.312273 7.798901 2.559938 1.155400 -0.000000 -70.546600 8.458592 1.383567 0.902326 -1.206245 0.158150 -45.811865 1.482286 -2.069513 26.628659 -0.231462 -0.566269 10.110981 -0.593300 0.000000 -59.913400 7.301791 -3.362871 1.636510 0.206641 -3.888077 -1.935263 -8.704295 -3.794260 2.338312 7.607928 -9.132550 -7.812462 -4.419442 -0.327190 -0.182563 0.000000 0.000000 0.000000 3.164308 9.504679 2.531786 -18.856052 -10.354903 0.550060 0.017322 -88.542961 0.054448 -13.164339 0.023831 0.025138 0.168363 0.244506 -0.000000 0.000000 0.000000 0.000000 0.000000 0.000000 0.000000 18.366541 -7.734347 1.101678 66.403684 -7.729030 -22.635800 4.084240 14.171660 0.021390 2.624280 9.147808 0.204172 0.104128 -0.086324 -0.000000 0.000000 0.000000 0.000000 0.000000 0.000000 0.000000 
-7.758188 16.127955 1.297780 -168.888643 75.336984 -152.025180 -12.420182 2.930456 -1.279371 -3.386933 -1.414170 -0.862010 0.138304 2.700888 41.325034 1.587444 9.715149 3.022454 1.513600 0.000000 -64.051600 8.347509 1.314682 0.632833 -0.293245 -0.126998 -45.637396 1.433968 -2.223962 28.812396 -0.343856 -1.194473 9.250634 -0.769800 -0.000000 -60.267199 7.887017 -3.278081 2.001686 0.291381 -3.819751 -1.898659 -8.802129 -3.729340 2.245856 7.578060 -8.543175 -7.738099 -4.531807 -0.335237 -0.172915 0.000000 0.000000 0.000000 2.997054 9.698518 2.571805 -19.449513 -9.937530 0.854035 0.024744 -88.826499 0.054112 -13.328875 -0.168932 0.048038 0.165636 0.242507 -0.000000 0.000000 0.000000 0.000000 0.000000 0.000000 0.000000 18.683897 -7.107292 1.129586 66.396648 -7.091107 -23.573317 4.043886 13.142476 0.020861 2.272478 9.252177 0.177860 0.102702 -0.087907 -0.000000 0.000000 0.000000 0.000000 0.000000 0.000000 0.000000 
-7.555933 16.129690 1.275592 -167.871646 74.582080 -151.230433 -12.715861 2.847012 -1.451334 -2.519340 -0.350140 -2.572030 0.333109 2.886202 44.711814 1.874205 11.745226 3.064321 1.861000 0.000001 -56.312100 8.248215 1.242289 0.385156 0.503165 -0.471404 -45.268635 1.406996 -2.330048 30.585067 -0.470325 -1.904029 8.026116 -0.946100 -0.000000 -60.964400 8.362959 -3.199139 2.343695 0.355762 -3.751237 -1.867113 -8.897259 -3.664678 2.148927 7.568108 -7.918716 -7.623916 -4.651742 -0.344020 -0.152775 0.000000 0.000000 0.000000 2.859160 9.810987 2.610540 -20.218929 -9.605591 1.303464 0.026106 -88.985538 0.053708 -13.508888 -0.344783 0.069348 0.162544 0.239614 0.000000 0.000000 0.000000 0.000000 0.000000 0.000000 0.000000 19.049995 -6.465820 1.156410 66.408989 -6.416810 -24.457759 3.992908 12.149941 0.020194 1.908704 9.350601 0.149846 0.100792 -0.089337 -0.000000 0.000000 0.000000 0.000000 0.000000 0.000000 0.000000 
-7.358256 16.140501 1.254380 -167.371042 73.703386 -150.901649 -12.974140 2.733386 -1.599500 -1.778665 0.584120 -4.422236 0.499352 3.060757 48.014794 2.157992 13.779666 2.676586 2.139500 0.000000 -48.038501 8.164075 1.167132 0.162344 1.175017 -0.870773 -44.722243 1.401069 -2.392843 31.954010 -0.612727 -2.680893 6.534103 -1.103300 0.000000 -61.830599 8.734864 -3.124729 2.642925 0.401635 -3.682817 -1.842948 -8.986786 -3.600233 2.053688 7.571464 -7.286489 -7.476141 -4.775263 -0.353180 -0.123441 0.000000 0.000000 0.000000 2.736827 9.848757 2.647563 -21.136778 -9.380670 1.908074 0.019309 -88.998396 0.053219 -13.703210 -0.494046 0.088070 0.159057 0.235699 0.000000 0.000000 0.000000 0.000000 0.000000 0.000000 0.000000 19.449579 -5.838385 1.180631 66.438737 -5.700899 -25.229583 3.935284 11.216217 0.019430 1.546184 9.443373 0.121333 0.098523 -0.090619 -0.000000 0.000000 0.000000 0.000000 0.000000 0.000000 0.000000 
